<?xml version="1.0" encoding="UTF-8" standalone="no"?><!DOCTYPE svg PUBLIC "-//W3C//DTD SVG 1.1//EN" "http://www.w3.org/Graphics/SVG/1.1/DTD/svg11.dtd"><svg width="100%" height="100%" viewBox="0 0 30 30" version="1.1" xmlns="http://www.w3.org/2000/svg" xmlns:xlink="http://www.w3.org/1999/xlink" xml:space="preserve" xmlns:serif="http://www.serif.com/" style="fill-rule:evenodd;clip-rule:evenodd;stroke-linejoin:round;stroke-miterlimit:1.41421;"><path id="Forma-1" serif:id="Forma 1" d="M22.744,15.889c-0.036,-3.593 2.93,-5.316 3.063,-5.402c-1.667,-2.438 -4.263,-2.773 -5.188,-2.811c-2.21,-0.224 -4.311,1.301 -5.432,1.301c-1.119,0 -2.849,-1.268 -4.682,-1.235c-2.408,0.036 -4.628,1.401 -5.868,3.557c-2.502,4.342 -0.641,10.774 1.798,14.295c1.191,1.723 2.612,3.659 4.478,3.59c1.796,-0.072 2.476,-1.162 4.648,-1.162c2.172,0 2.782,1.162 4.684,1.126c1.933,-0.035 3.158,-1.756 4.341,-3.485c1.368,-2 1.932,-3.935 1.965,-4.035c-0.043,-0.019 -3.77,-1.447 -3.807,-5.739Zm-3.572,-10.544c0.99,-1.202 1.658,-2.868 1.476,-4.531c-1.427,0.058 -3.155,0.95 -4.179,2.149c-0.918,1.063 -1.722,2.76 -1.506,4.39c1.592,0.124 3.217,-0.81 4.209,-2.008Z" style="fill:#333;fill-rule:nonzero;"/></svg>