<?xml version="1.0" encoding="UTF-8" standalone="no"?><!DOCTYPE svg PUBLIC "-//W3C//DTD SVG 1.1//EN" "http://www.w3.org/Graphics/SVG/1.1/DTD/svg11.dtd"><svg width="100%" height="100%" viewBox="0 0 30 30" version="1.1" xmlns="http://www.w3.org/2000/svg" xmlns:xlink="http://www.w3.org/1999/xlink" xml:space="preserve" xmlns:serif="http://www.serif.com/" style="fill-rule:evenodd;clip-rule:evenodd;stroke-linejoin:round;stroke-miterlimit:1.41421;"><g><path id="Logo" d="M4.977,27.868c0.112,-0.044 0.221,-0.096 0.326,-0.156l14.936,-8.491l-3.541,-3.672l-11.721,12.319Zm15.923,-9.022l-3.694,-3.831l3.691,-3.878l5.082,2.879c1.252,0.708 0.611,1.596 0,1.943l-5.079,2.887Zm-0.664,-8.083l-14.933,-8.461c-0.163,-0.089 -0.339,-0.147 -0.522,-0.17l11.914,12.353l3.541,-3.722l0,0Zm-16.33,-8.479l12.28,12.735l-12.221,12.844c-0.357,-0.235 -0.548,-0.744 -0.552,-1.403c-0.006,-1.262 -0.103,-21.296 -0.11,-22.799c-0.004,-0.72 0.249,-1.159 0.603,-1.377Z" style="fill:#333;"/></g></svg>