<?xml version="1.0" encoding="UTF-8" standalone="no"?><!DOCTYPE svg PUBLIC "-//W3C//DTD SVG 1.1//EN" "http://www.w3.org/Graphics/SVG/1.1/DTD/svg11.dtd"><svg width="100%" height="100%" viewBox="0 0 103 38" version="1.1" xmlns="http://www.w3.org/2000/svg" xmlns:xlink="http://www.w3.org/1999/xlink" xml:space="preserve" xmlns:serif="http://www.serif.com/" style="fill-rule:evenodd;clip-rule:evenodd;stroke-linejoin:round;stroke-miterlimit:1.41421;"><g><g><g><path d="M6.99,3.447c0,1.904 -1.543,3.447 -3.447,3.447c-1.904,0 -3.447,-1.543 -3.447,-3.447c0,-1.904 1.543,-3.447 3.447,-3.447c1.904,0 3.447,1.543 3.447,3.447" style="fill:#468300;fill-rule:nonzero;"/><path d="M28.461,3.447c0,1.904 -1.544,3.447 -3.448,3.447c-1.903,0 -3.447,-1.543 -3.447,-3.447c0,-1.904 1.544,-3.447 3.447,-3.447c1.904,0 3.448,1.543 3.448,3.447" style="fill:#468300;fill-rule:nonzero;"/><path d="M3.335,36.957c-1.837,0.017 -3.335,-1.468 -3.335,-3.304l0,-21.984c0,-1.825 1.479,-3.305 3.304,-3.305l0.288,0c1.012,0 1.916,0.455 2.522,1.17l0.045,0.024c0.479,4.091 3.957,6.74 8.178,6.74c2.773,0 5.227,-0.846 6.718,-2.947l0.001,-0.001l0.003,-0.004l0.021,-0.03l0.009,-0.012l0.003,-0.005l0.004,-0.006l0.012,-0.017l0.015,-0.021l0.004,-0.006l0.002,-0.004c0.022,-0.032 0.044,-0.065 0.066,-0.098l0.001,0l0.002,-0.003l0.021,-0.033l0.008,-0.012l0.003,-0.004l0.004,-0.006l0.012,-0.019l0.014,-0.021l0.003,-0.006l0.003,-0.003l0.007,-0.012l0.023,-0.036l0,-0.001l0.001,0c0.021,-0.033 0.042,-0.067 0.063,-0.101l0.002,-0.003l0.003,-0.005l0.013,-0.022l0.013,-0.021l0.003,-0.005l0.002,-0.003c0.031,-0.051 0.061,-0.103 0.091,-0.155l0.001,-0.002l0.001,-0.003l0.015,-0.025l0.013,-0.023l0.001,-0.003l0.001,-0.002c0.541,-0.962 0.894,-2.044 1.01,-3.196c0.597,-0.591 1.418,-0.956 2.324,-0.956l0.287,0c1.842,0 3.328,1.506 3.304,3.348l-0.288,21.984c-0.023,1.796 -1.476,3.244 -3.272,3.261c-1.837,0.017 -3.336,-1.467 -3.336,-3.304l0,-15.94c-0.69,2.092 -2.66,3.602 -4.983,3.602l-4.563,0c-2.604,0 -4.765,-1.897 -5.176,-4.385l-0.218,16.664c-0.023,1.796 -1.477,3.244 -3.273,3.261l0,0Z" style="fill:#468300;"/></g></g><g><g id="Layer-1" serif:id="Layer 1"><path d="M42.408,29.879c-0.217,-0.216 -0.325,-0.476 -0.325,-0.779c0,-0.303 0.108,-0.563 0.325,-0.779c0.216,-0.217 0.476,-0.325 0.779,-0.325c0.303,0 0.563,0.108 0.779,0.325c0.217,0.216 0.325,0.476 0.325,0.779c0,0.303 -0.108,0.563 -0.325,0.779c-0.216,0.216 -0.476,0.325 -0.779,0.325c-0.303,0 -0.563,-0.109 -0.779,-0.325m-2.584,0c-0.217,-0.216 -0.325,-0.476 -0.325,-0.779c0,-0.303 0.108,-0.563 0.325,-0.779c0.216,-0.217 0.476,-0.325 0.779,-0.325c0.303,0 0.562,0.108 0.779,0.325c0.216,0.216 0.325,0.476 0.325,0.779c0,0.303 -0.109,0.563 -0.325,0.779c-0.217,0.216 -0.476,0.325 -0.779,0.325c-0.303,0 -0.563,-0.109 -0.779,-0.325m7.467,-6.467l-0.195,0c0.035,0.173 0.052,0.372 0.052,0.597c0,1.108 -0.388,1.924 -1.162,2.448c-0.775,0.524 -1.977,0.786 -3.604,0.786l-0.766,0c-0.97,0 -1.84,-0.152 -2.611,-0.455c-0.77,-0.303 -1.381,-0.77 -1.831,-1.402c-0.45,-0.632 -0.675,-1.429 -0.675,-2.39c0,-0.701 0.125,-1.467 0.377,-2.298l1.831,0c-0.191,0.736 -0.286,1.368 -0.286,1.896c0,0.9 0.26,1.582 0.779,2.045c0.52,0.463 1.325,0.695 2.416,0.695l0.766,0c0.762,0 1.34,-0.039 1.734,-0.117c0.393,-0.078 0.67,-0.21 0.831,-0.396c0.16,-0.186 0.24,-0.457 0.24,-0.812c0,-0.234 -0.067,-0.428 -0.201,-0.584c-0.135,-0.156 -0.392,-0.286 -0.773,-0.39l-0.636,-0.143c-0.217,-0.06 -0.697,-0.173 -1.442,-0.337l0.377,-1.779c1.333,0.294 2.29,0.484 2.87,0.571c0.58,0.087 1.216,0.134 1.909,0.143l0,1.922Z" style="fill:#468300;fill-rule:nonzero;"/><path d="M50.382,15.685c-0.217,-0.217 -0.325,-0.476 -0.325,-0.779c0,-0.303 0.108,-0.563 0.325,-0.78c0.216,-0.216 0.476,-0.324 0.779,-0.324c0.303,0 0.562,0.108 0.779,0.324c0.216,0.217 0.325,0.477 0.325,0.78c0,0.303 -0.109,0.562 -0.325,0.779c-0.217,0.216 -0.476,0.324 -0.779,0.324c-0.303,0 -0.563,-0.108 -0.779,-0.324m-2.585,0c-0.216,-0.217 -0.324,-0.476 -0.324,-0.779c0,-0.303 0.108,-0.563 0.324,-0.78c0.216,-0.216 0.476,-0.324 0.779,-0.324c0.303,0 0.563,0.108 0.78,0.324c0.216,0.217 0.324,0.477 0.324,0.78c0,0.303 -0.108,0.562 -0.324,0.779c-0.217,0.216 -0.477,0.324 -0.78,0.324c-0.303,0 -0.563,-0.108 -0.779,-0.324m1.117,1.493l1.961,0l0,6.234l-3.584,0c-0.294,0 -0.541,-0.095 -0.741,-0.286c-0.199,-0.19 -0.298,-0.424 -0.298,-0.701c0,-0.277 0.095,-0.502 0.285,-0.675c0.191,-0.174 0.442,-0.26 0.754,-0.26l1.623,0l0,-4.312Z" style="fill:#468300;fill-rule:nonzero;"/><rect x="53.213" y="13.88" width="1.961" height="9.532" style="fill:#468300;"/><path d="M61.251,21.49l0,1.922l-1.35,0c0,0.926 -0.208,1.627 -0.624,2.104c-0.415,0.476 -1.008,0.714 -1.779,0.714c-0.511,0 -1.056,-0.095 -1.636,-0.286l0.376,-1.688c0.398,0.095 0.71,0.143 0.935,0.143c0.269,0 0.463,-0.074 0.585,-0.221c0.121,-0.147 0.182,-0.403 0.182,-0.766l0,-6.234l1.961,0l0,4.312l1.35,0Z" style="fill:#468300;fill-rule:nonzero;"/><path d="M64.537,26.464c-0.217,-0.217 -0.325,-0.477 -0.325,-0.78c0,-0.303 0.108,-0.562 0.325,-0.779c0.216,-0.216 0.476,-0.324 0.779,-0.324c0.303,0 0.563,0.108 0.779,0.324c0.216,0.217 0.325,0.476 0.325,0.779c0,0.303 -0.109,0.563 -0.325,0.78c-0.216,0.216 -0.476,0.324 -0.779,0.324c-0.303,0 -0.563,-0.108 -0.779,-0.324m4.519,-5.15c0.086,0.083 0.193,0.133 0.318,0.15c0.126,0.017 0.323,0.026 0.591,0.026l0,1.922l-8.701,0c-0.346,0 -0.615,-0.095 -0.805,-0.286c-0.19,-0.19 -0.286,-0.416 -0.286,-0.675c0,-0.26 0.096,-0.485 0.286,-0.676c0.19,-0.19 0.459,-0.285 0.805,-0.285l5.714,0c-0.009,-0.035 -0.017,-0.074 -0.026,-0.117c-0.009,-0.043 -0.017,-0.095 -0.026,-0.156c-0.112,-0.658 -0.262,-1.179 -0.448,-1.565c-0.186,-0.385 -0.426,-0.682 -0.721,-0.889c-0.597,-0.416 -1.342,-0.624 -2.233,-0.624c-0.485,0 -0.97,0.07 -1.455,0.208l-0.221,-1.805c0.65,-0.173 1.295,-0.26 1.935,-0.26c1.178,0 2.212,0.299 3.104,0.896c0.52,0.347 0.939,0.823 1.26,1.429c0.32,0.606 0.563,1.372 0.727,2.298c0.035,0.191 0.095,0.327 0.182,0.409" style="fill:#468300;fill-rule:nonzero;"/><path d="M74.913,21.49l0,1.922l-3.571,0l0,-8.753l1.961,0l0,6.831l1.61,0Zm-1.273,-7.87l-2.701,0l0,-0.818l0.299,0c-0.2,-0.182 -0.299,-0.437 -0.299,-0.766c0,-0.39 0.147,-0.708 0.442,-0.955c0.294,-0.247 0.653,-0.37 1.077,-0.37c0.329,0 0.654,0.078 0.974,0.234l-0.402,0.779c-0.182,-0.069 -0.347,-0.104 -0.494,-0.104c-0.19,0 -0.346,0.045 -0.467,0.136c-0.121,0.091 -0.182,0.228 -0.182,0.409c0,0.191 0.067,0.345 0.201,0.461c0.134,0.117 0.306,0.176 0.513,0.176l1.039,0l0,0.818Z" style="fill:#468300;fill-rule:nonzero;"/><path d="M78.03,15.685c-0.217,-0.217 -0.325,-0.476 -0.325,-0.779c0,-0.303 0.108,-0.563 0.325,-0.78c0.216,-0.216 0.476,-0.324 0.779,-0.324c0.303,0 0.562,0.108 0.779,0.324c0.216,0.217 0.325,0.477 0.325,0.78c0,0.303 -0.109,0.562 -0.325,0.779c-0.217,0.216 -0.476,0.324 -0.779,0.324c-0.303,0 -0.563,-0.108 -0.779,-0.324m-2.585,0c-0.216,-0.217 -0.324,-0.476 -0.324,-0.779c0,-0.303 0.108,-0.563 0.324,-0.78c0.217,-0.216 0.476,-0.324 0.779,-0.324c0.303,0 0.563,0.108 0.78,0.324c0.216,0.217 0.324,0.477 0.324,0.78c0,0.303 -0.108,0.562 -0.324,0.779c-0.217,0.216 -0.477,0.324 -0.78,0.324c-0.303,0 -0.562,-0.108 -0.779,-0.324m5.052,5.805l0,1.922c-1.377,0 -2.307,-0.381 -2.792,-1.143c-0.312,0.364 -0.704,0.645 -1.175,0.844c-0.472,0.199 -1.011,0.299 -1.617,0.299c-0.294,0 -0.541,-0.095 -0.74,-0.286c-0.2,-0.19 -0.299,-0.424 -0.299,-0.701c0,-0.277 0.095,-0.502 0.286,-0.675c0.19,-0.174 0.441,-0.26 0.753,-0.26c0.476,0 0.865,-0.139 1.169,-0.416c0.303,-0.277 0.454,-0.692 0.454,-1.246l0,-2.65l1.961,0l0,2.65c0,0.493 0.138,0.887 0.416,1.181c0.32,0.321 0.848,0.481 1.584,0.481" style="fill:#468300;fill-rule:nonzero;"/><path d="M94.003,21.49l0,1.922l-4.026,0c-0.58,0 -1.06,-0.089 -1.441,-0.266c-0.381,-0.178 -0.68,-0.444 -0.896,-0.799c-0.26,0.337 -0.568,0.6 -0.923,0.786c-0.355,0.186 -0.74,0.279 -1.155,0.279l-5.065,0c-0.303,0 -0.552,-0.091 -0.747,-0.273c-0.195,-0.182 -0.292,-0.411 -0.292,-0.688c0,-0.277 0.097,-0.507 0.292,-0.689c0.195,-0.181 0.444,-0.272 0.747,-0.272l1.623,0l0,-4.779l1.961,0l0,4.779l1.221,0c0.736,0 1.104,-0.554 1.104,-1.662l0,-3.117l1.961,0l0,3.117c0,0.571 0.11,0.991 0.331,1.259c0.221,0.269 0.56,0.403 1.019,0.403l0.974,0l0,-5.208l1.961,0l0,5.208l1.351,0Z" style="fill:#468300;fill-rule:nonzero;"/><path d="M99.821,21.198c0.312,-0.282 0.467,-0.682 0.467,-1.202c0,-0.502 -0.143,-0.919 -0.428,-1.253c-0.286,-0.333 -0.662,-0.5 -1.13,-0.5c-0.355,0 -0.643,0.119 -0.864,0.357c-0.22,0.238 -0.417,0.617 -0.591,1.137c-0.086,0.251 -0.151,0.515 -0.194,0.792c-0.018,0.06 -0.033,0.132 -0.046,0.214c-0.013,0.082 -0.037,0.175 -0.071,0.279c0.251,0.2 0.523,0.349 0.818,0.448c0.294,0.1 0.58,0.15 0.857,0.15c0.476,0 0.87,-0.141 1.182,-0.422m0.708,-4.422c0.532,0.329 0.952,0.777 1.259,1.344c0.307,0.567 0.461,1.192 0.461,1.876c0,0.71 -0.151,1.323 -0.454,1.838c-0.303,0.515 -0.706,0.907 -1.208,1.175c-0.502,0.269 -1.052,0.403 -1.649,0.403c-0.468,0 -0.929,-0.082 -1.383,-0.247c-0.455,-0.164 -0.877,-0.411 -1.266,-0.74c-0.26,0.32 -0.587,0.565 -0.981,0.734c-0.394,0.168 -0.829,0.253 -1.305,0.253c-0.294,0 -0.541,-0.095 -0.74,-0.286c-0.199,-0.19 -0.299,-0.424 -0.299,-0.701c0,-0.277 0.095,-0.502 0.286,-0.676c0.19,-0.173 0.441,-0.259 0.753,-0.259c0.277,0 0.489,-0.05 0.636,-0.15c0.147,-0.099 0.253,-0.235 0.318,-0.409c0.065,-0.173 0.141,-0.441 0.228,-0.805c0.086,-0.372 0.147,-0.614 0.181,-0.727c0.269,-0.987 0.691,-1.753 1.267,-2.299c0.575,-0.545 1.274,-0.818 2.097,-0.818c0.667,0 1.266,0.165 1.799,0.494" style="fill:#468300;fill-rule:nonzero;"/></g></g></g></svg>