<?xml version="1.0" encoding="UTF-8" standalone="no"?><!DOCTYPE svg PUBLIC "-//W3C//DTD SVG 1.1//EN" "http://www.w3.org/Graphics/SVG/1.1/DTD/svg11.dtd"><svg width="100%" height="100%" viewBox="0 0 50 50" version="1.1" xmlns="http://www.w3.org/2000/svg" xmlns:xlink="http://www.w3.org/1999/xlink" xml:space="preserve" xmlns:serif="http://www.serif.com/" style="fill-rule:evenodd;clip-rule:evenodd;stroke-linejoin:round;stroke-miterlimit:1.41421;"><g><path d="M22.476,40.144c0,1.385 -1.139,2.524 -2.524,2.524c-1.385,0 -2.524,-1.139 -2.524,-2.524c0,-1.385 1.139,-2.524 2.524,-2.524c1.385,0 2.524,1.139 2.524,2.524Zm12.62,-2.524c-1.385,0 -2.524,1.139 -2.524,2.524c0,1.385 1.139,2.524 2.524,2.524c1.385,0 2.524,-1.139 2.524,-2.524c0,-1.385 -1.139,-2.524 -2.524,-2.524Zm-19.351,-23.557l-1.127,-6.731l-7.286,0l0,3.365l4.223,0l4.19,23.558l23.558,0l3.365,-20.192l-26.923,0Z" style="fill:url(#_Linear1);fill-rule:nonzero;"/></g><defs><linearGradient id="_Linear1" x1="0" y1="0" x2="1" y2="0" gradientUnits="userSpaceOnUse" gradientTransform="matrix(-15.6656,42.521,-42.521,-15.6656,27.7427,9.68773)"><stop offset="0" style="stop-color:#38d996;stop-opacity:1"/><stop offset="1" style="stop-color:#38d996;stop-opacity:0"/></linearGradient></defs></svg>