<?xml version="1.0" encoding="UTF-8" standalone="no"?><!DOCTYPE svg PUBLIC "-//W3C//DTD SVG 1.1//EN" "http://www.w3.org/Graphics/SVG/1.1/DTD/svg11.dtd"><svg width="100%" height="100%" viewBox="0 0 50 50" version="1.1" xmlns="http://www.w3.org/2000/svg" xmlns:xlink="http://www.w3.org/1999/xlink" xml:space="preserve" xmlns:serif="http://www.serif.com/" style="fill-rule:evenodd;clip-rule:evenodd;stroke-linejoin:round;stroke-miterlimit:1.41421;"><g><path d="M25,26.909c-9.544,0 -17.179,-4.696 -17.179,-10.498l0,17.388c0,5.726 7.635,10.288 17.179,10.288c9.544,0 17.179,-4.542 17.179,-10.288l0,-17.388c0,5.802 -7.635,10.498 -17.179,10.498Z" style="fill:url(#_Linear1);fill-rule:nonzero;"/><path d="M42.179,16.411l0,8.589c0,5.726 -7.635,10.498 -17.179,10.498c-9.544,0 -17.179,-4.772 -17.179,-10.498l0,-8.589c0,5.726 7.635,10.498 17.179,10.498c9.544,0 17.179,-4.696 17.179,-10.498Z" style="fill:url(#_Linear2);fill-rule:nonzero;"/><ellipse cx="25" cy="16.411" rx="17.179" ry="10.498" style="fill:url(#_Linear3);"/></g><defs><linearGradient id="_Linear1" x1="0" y1="0" x2="1" y2="0" gradientUnits="userSpaceOnUse" gradientTransform="matrix(-47.2983,-9.60091,9.60091,-47.2983,44.1636,32.6922)"><stop offset="0" style="stop-color:#9085da;stop-opacity:1"/><stop offset="1" style="stop-color:#9085da;stop-opacity:0"/></linearGradient><linearGradient id="_Linear2" x1="0" y1="0" x2="1" y2="0" gradientUnits="userSpaceOnUse" gradientTransform="matrix(-78.2197,21.6259,-21.6259,-78.2197,68.0418,12.1924)"><stop offset="0" style="stop-color:#9085da;stop-opacity:1"/><stop offset="1" style="stop-color:#9085da;stop-opacity:0"/></linearGradient><linearGradient id="_Linear3" x1="0" y1="0" x2="1" y2="0" gradientUnits="userSpaceOnUse" gradientTransform="matrix(-26.2832,36.4758,-36.4758,-26.2832,31.9478,6.77164)"><stop offset="0" style="stop-color:#9085da;stop-opacity:1"/><stop offset="1" style="stop-color:#9085da;stop-opacity:0"/></linearGradient></defs></svg>