<?xml version="1.0" encoding="UTF-8" standalone="no"?><!DOCTYPE svg PUBLIC "-//W3C//DTD SVG 1.1//EN" "http://www.w3.org/Graphics/SVG/1.1/DTD/svg11.dtd"><svg width="100%" height="100%" viewBox="0 0 50 50" version="1.1" xmlns="http://www.w3.org/2000/svg" xmlns:xlink="http://www.w3.org/1999/xlink" xml:space="preserve" xmlns:serif="http://www.serif.com/" style="fill-rule:evenodd;clip-rule:evenodd;stroke-linejoin:round;stroke-miterlimit:1.41421;"><g><path d="M38.158,25.899c0.507,-1.416 0.767,-2.909 0.767,-4.414c0,-7.175 -5.904,-13.079 -13.079,-13.079c-7.175,0 -13.08,5.904 -13.08,13.079c0,0.018 0,0.036 0.001,0.054c0,0.879 0.088,1.755 0.261,2.616l-0.261,0c-4.784,0 -8.72,3.936 -8.72,8.719c0,4.784 3.936,8.72 8.72,8.72l25.286,0c0.017,0 0.035,0 0.052,0c4.305,0 7.848,-3.543 7.848,-7.848c0,-4.285 -3.51,-7.819 -7.795,-7.847Z" style="fill:url(#_Linear1);fill-rule:nonzero;"/></g><defs><linearGradient id="_Linear1" x1="0" y1="0" x2="1" y2="0" gradientUnits="userSpaceOnUse" gradientTransform="matrix(8.63225,-50.3635,50.3635,8.63225,24.4157,36.5016)"><stop offset="0" style="stop-color:#ffab9d;stop-opacity:1"/><stop offset="1" style="stop-color:#ffab9d;stop-opacity:0"/></linearGradient></defs></svg>