<?xml version="1.0" encoding="UTF-8" standalone="no"?><!DOCTYPE svg PUBLIC "-//W3C//DTD SVG 1.1//EN" "http://www.w3.org/Graphics/SVG/1.1/DTD/svg11.dtd"><svg width="100%" height="100%" viewBox="0 0 1601 62" version="1.1" xmlns="http://www.w3.org/2000/svg" xmlns:xlink="http://www.w3.org/1999/xlink" xml:space="preserve" xmlns:serif="http://www.serif.com/" style="fill-rule:evenodd;clip-rule:evenodd;stroke-linejoin:round;stroke-miterlimit:1.41421;"><g><path id="wave" d="M1601.21,41.775l0,-41.574l-1601.43,0l0,40.693c128.876,0.55 254.762,-36.245 729.07,-36.245c474.309,0 661.478,37.884 872.358,37.126Z" style="fill:#fff;fill-opacity:0.5;"/><path id="wave1" serif:id="wave" d="M1601.21,61.793l0,-61.592l-1601.43,0l0,55.15c118.135,0.505 348.506,-55.15 693.038,-55.15c344.533,0 717.503,62.278 908.39,61.592Z" style="fill:#fff;fill-opacity:0.25;"/><path id="base" d="M1601.21,27.318l0,-27.117l-1601.43,0l0,22.899c106.499,0.455 309.315,-22.899 643.661,-22.899c334.346,0 619.571,28.332 957.767,27.117Z" style="fill:#fff;"/></g></svg>