<?xml version="1.0" encoding="UTF-8" standalone="no"?><!DOCTYPE svg PUBLIC "-//W3C//DTD SVG 1.1//EN" "http://www.w3.org/Graphics/SVG/1.1/DTD/svg11.dtd"><svg width="100%" height="100%" viewBox="0 0 20 20" version="1.1" xmlns="http://www.w3.org/2000/svg" xmlns:xlink="http://www.w3.org/1999/xlink" xml:space="preserve" xmlns:serif="http://www.serif.com/" style="fill-rule:evenodd;clip-rule:evenodd;stroke-linejoin:round;stroke-miterlimit:1.41421;"><path id="Forma-1-copy-15" serif:id="Forma 1 copy 15" d="M18.469,9.201c0.349,-0.34 0.473,-0.841 0.321,-1.307c-0.15,-0.466 -0.542,-0.798 -1.025,-0.869l-4.287,-0.626c-0.183,-0.026 -0.342,-0.142 -0.422,-0.308l-1.918,-3.903c-0.215,-0.439 -0.651,-0.711 -1.137,-0.711c-0.489,0 -0.923,0.272 -1.14,0.711l-1.918,3.903c-0.081,0.167 -0.238,0.282 -0.421,0.308l-4.287,0.626c-0.483,0.071 -0.876,0.403 -1.026,0.869c-0.149,0.466 -0.027,0.967 0.322,1.307l3.1,3.039c0.133,0.13 0.193,0.316 0.163,0.499l-0.731,4.29c-0.064,0.378 0.033,0.745 0.277,1.035c0.378,0.451 1.038,0.589 1.565,0.31l3.834,-2.026c0.16,-0.084 0.362,-0.083 0.522,0l3.836,2.026c0.184,0.099 0.383,0.149 0.59,0.149c0.373,0 0.729,-0.168 0.973,-0.459c0.243,-0.29 0.343,-0.658 0.276,-1.035l-0.729,-4.29c-0.032,-0.183 0.029,-0.369 0.161,-0.499l3.101,-3.039Z" style="fill:#468300;fill-rule:nonzero;"/></svg>