<?xml version="1.0" encoding="UTF-8" standalone="no"?><!DOCTYPE svg PUBLIC "-//W3C//DTD SVG 1.1//EN" "http://www.w3.org/Graphics/SVG/1.1/DTD/svg11.dtd"><svg width="100%" height="100%" viewBox="0 0 141 52" version="1.1" xmlns="http://www.w3.org/2000/svg" xmlns:xlink="http://www.w3.org/1999/xlink" xml:space="preserve" xmlns:serif="http://www.serif.com/" style="fill-rule:evenodd;clip-rule:evenodd;stroke-linejoin:round;stroke-miterlimit:1.41421;"><g><g><g><path d="M9.636,4.752c0,2.624 -2.128,4.752 -4.753,4.752c-2.624,0 -4.751,-2.128 -4.751,-4.752c0,-2.625 2.127,-4.752 4.751,-4.752c2.625,0 4.753,2.127 4.753,4.752" style="fill:#fff;fill-rule:nonzero;"/><path d="M39.233,4.752c0,2.624 -2.128,4.752 -4.752,4.752c-2.624,0 -4.752,-2.128 -4.752,-4.752c0,-2.625 2.128,-4.752 4.752,-4.752c2.624,0 4.752,2.127 4.752,4.752" style="fill:#fff;fill-rule:nonzero;"/><path d="M4.597,50.945c-2.531,0.024 -4.597,-2.023 -4.597,-4.555l0,-30.305c0,-2.515 2.039,-4.555 4.555,-4.555l0.396,0c1.395,0 2.642,0.627 3.477,1.613l0.062,0.032c0.66,5.64 5.456,9.292 11.273,9.292c3.824,0 7.205,-1.166 9.262,-4.063l0.001,-0.002l0.004,-0.005l0.029,-0.04l0.012,-0.018l0.004,-0.006l0.006,-0.008l0.017,-0.024l0.02,-0.029l0.005,-0.009l0.004,-0.005c0.03,-0.044 0.061,-0.089 0.091,-0.134l0,-0.001l0.003,-0.004l0.03,-0.045l0.01,-0.017l0.004,-0.005l0.005,-0.008l0.018,-0.027l0.018,-0.029l0.006,-0.008l0.003,-0.005l0.01,-0.016l0.032,-0.05l0,0l0,0c0.03,-0.047 0.059,-0.093 0.088,-0.14l0.002,-0.005l0.004,-0.006l0.019,-0.031l0.018,-0.029l0.003,-0.006l0.003,-0.005c0.043,-0.07 0.084,-0.142 0.125,-0.213l0.002,-0.002l0.002,-0.005l0.02,-0.035l0.018,-0.031l0.002,-0.004l0.002,-0.003c0.745,-1.326 1.232,-2.818 1.391,-4.406c0.823,-0.814 1.954,-1.317 3.203,-1.317l0.396,0c2.54,0 4.588,2.076 4.555,4.615l-0.396,30.305c-0.032,2.475 -2.036,4.472 -4.512,4.495c-2.532,0.024 -4.598,-2.022 -4.598,-4.555l0,-21.973c-0.951,2.884 -3.667,4.965 -6.869,4.966l-6.29,0c-3.59,0 -6.569,-2.616 -7.135,-6.045l-0.301,22.971c-0.032,2.475 -2.036,4.472 -4.511,4.495l-0.001,0Z" style="fill:#fff;"/></g></g><g><g id="Layer-1" serif:id="Layer 1"><path d="M58.459,41.189c-0.298,-0.299 -0.447,-0.657 -0.447,-1.075c0,-0.418 0.149,-0.775 0.447,-1.074c0.299,-0.298 0.657,-0.447 1.074,-0.447c0.418,0 0.776,0.149 1.075,0.447c0.298,0.299 0.447,0.656 0.447,1.074c0,0.418 -0.149,0.776 -0.447,1.075c-0.299,0.298 -0.657,0.447 -1.075,0.447c-0.417,0 -0.775,-0.149 -1.074,-0.447m-3.562,0c-0.299,-0.299 -0.448,-0.657 -0.448,-1.075c0,-0.418 0.149,-0.775 0.448,-1.074c0.298,-0.298 0.656,-0.447 1.074,-0.447c0.418,0 0.776,0.149 1.074,0.447c0.298,0.299 0.448,0.656 0.448,1.074c0,0.418 -0.15,0.776 -0.448,1.075c-0.298,0.298 -0.656,0.447 -1.074,0.447c-0.418,0 -0.776,-0.149 -1.074,-0.447m10.294,-8.916l-0.269,0c0.048,0.239 0.072,0.513 0.072,0.824c0,1.527 -0.535,2.652 -1.603,3.374c-1.068,0.722 -2.724,1.083 -4.967,1.083l-1.057,0c-1.336,0 -2.536,-0.209 -3.598,-0.626c-1.062,-0.418 -1.904,-1.063 -2.524,-1.934c-0.621,-0.871 -0.931,-1.969 -0.931,-3.294c0,-0.966 0.173,-2.022 0.519,-3.168l2.524,0c-0.262,1.014 -0.394,1.886 -0.394,2.613c0,1.242 0.359,2.181 1.075,2.82c0.716,0.638 1.826,0.958 3.329,0.958l1.057,0c1.05,0 1.846,-0.054 2.389,-0.161c0.543,-0.108 0.925,-0.29 1.146,-0.546c0.221,-0.257 0.331,-0.63 0.331,-1.119c0,-0.323 -0.092,-0.591 -0.277,-0.806c-0.185,-0.215 -0.54,-0.394 -1.065,-0.537l-0.877,-0.197c-0.299,-0.083 -0.961,-0.238 -1.987,-0.465l0.519,-2.453c1.837,0.406 3.156,0.669 3.956,0.788c0.799,0.119 1.677,0.185 2.632,0.197l0,2.649Z" style="fill:#fff;fill-rule:nonzero;"/><path d="M69.451,21.622c-0.298,-0.299 -0.447,-0.657 -0.447,-1.075c0,-0.417 0.149,-0.775 0.447,-1.074c0.298,-0.298 0.656,-0.447 1.074,-0.447c0.418,0 0.776,0.149 1.074,0.447c0.299,0.299 0.448,0.657 0.448,1.074c0,0.418 -0.149,0.776 -0.448,1.075c-0.298,0.298 -0.656,0.447 -1.074,0.447c-0.418,0 -0.776,-0.149 -1.074,-0.447m-3.562,0c-0.299,-0.299 -0.448,-0.657 -0.448,-1.075c0,-0.417 0.149,-0.775 0.448,-1.074c0.298,-0.298 0.656,-0.447 1.074,-0.447c0.417,0 0.775,0.149 1.074,0.447c0.298,0.299 0.447,0.657 0.447,1.074c0,0.418 -0.149,0.776 -0.447,1.075c-0.299,0.298 -0.657,0.447 -1.074,0.447c-0.418,0 -0.776,-0.149 -1.074,-0.447m1.539,2.058l2.703,0l0,8.593l-4.941,0c-0.405,0 -0.745,-0.131 -1.02,-0.394c-0.274,-0.262 -0.412,-0.584 -0.412,-0.966c0,-0.382 0.132,-0.692 0.394,-0.931c0.263,-0.239 0.609,-0.358 1.038,-0.358l2.238,0l0,-5.944Z" style="fill:#fff;fill-rule:nonzero;"/><rect x="73.354" y="19.133" width="2.703" height="13.14" style="fill:#fff;"/><path d="M84.435,29.624l0,2.649l-1.862,0c0,1.277 -0.286,2.244 -0.859,2.9c-0.573,0.657 -1.391,0.985 -2.453,0.985c-0.704,0 -1.456,-0.131 -2.255,-0.394l0.519,-2.327c0.548,0.131 0.978,0.197 1.289,0.197c0.37,0 0.638,-0.102 0.805,-0.304c0.167,-0.204 0.251,-0.556 0.251,-1.057l0,-8.593l2.703,0l0,5.944l1.862,0Z" style="fill:#fff;fill-rule:nonzero;"/><path d="M88.964,36.48c-0.298,-0.298 -0.448,-0.656 -0.448,-1.074c0,-0.418 0.15,-0.776 0.448,-1.074c0.298,-0.298 0.656,-0.448 1.074,-0.448c0.418,0 0.776,0.15 1.074,0.448c0.298,0.298 0.448,0.656 0.448,1.074c0,0.418 -0.15,0.776 -0.448,1.074c-0.298,0.298 -0.656,0.448 -1.074,0.448c-0.418,0 -0.776,-0.15 -1.074,-0.448m6.23,-7.098c0.119,0.114 0.265,0.182 0.439,0.206c0.172,0.024 0.444,0.036 0.814,0.036l0,2.649l-11.994,0c-0.477,0 -0.848,-0.131 -1.11,-0.394c-0.263,-0.262 -0.394,-0.573 -0.394,-0.93c0,-0.358 0.131,-0.669 0.394,-0.931c0.262,-0.263 0.633,-0.394 1.11,-0.394l7.877,0c-0.012,-0.048 -0.024,-0.102 -0.036,-0.161c-0.012,-0.06 -0.024,-0.132 -0.036,-0.215c-0.155,-0.907 -0.361,-1.626 -0.618,-2.157c-0.256,-0.531 -0.588,-0.94 -0.993,-1.227c-0.824,-0.573 -1.85,-0.859 -3.079,-0.859c-0.669,0 -1.337,0.096 -2.005,0.286l-0.305,-2.488c0.895,-0.238 1.784,-0.358 2.668,-0.358c1.623,0 3.049,0.412 4.278,1.235c0.716,0.478 1.295,1.134 1.737,1.969c0.441,0.836 0.775,1.892 1.002,3.169c0.048,0.263 0.132,0.451 0.251,0.564" style="fill:#fff;fill-rule:nonzero;"/><path d="M103.268,29.624l0,2.649l-4.923,0l0,-12.066l2.703,0l0,9.417l2.22,0Zm-1.755,-10.849l-3.723,0l0,-1.128l0.412,0c-0.275,-0.25 -0.412,-0.602 -0.412,-1.056c0,-0.537 0.202,-0.976 0.608,-1.316c0.406,-0.34 0.901,-0.51 1.486,-0.51c0.454,0 0.901,0.107 1.343,0.322l-0.555,1.074c-0.251,-0.095 -0.478,-0.143 -0.68,-0.143c-0.263,0 -0.478,0.063 -0.645,0.188c-0.167,0.126 -0.25,0.314 -0.25,0.564c0,0.263 0.092,0.474 0.277,0.636c0.185,0.161 0.421,0.241 0.707,0.241l1.432,0l0,1.128Z" style="fill:#fff;fill-rule:nonzero;"/><path d="M107.564,21.622c-0.298,-0.299 -0.447,-0.657 -0.447,-1.075c0,-0.417 0.149,-0.775 0.447,-1.074c0.298,-0.298 0.656,-0.447 1.074,-0.447c0.418,0 0.776,0.149 1.074,0.447c0.298,0.299 0.448,0.657 0.448,1.074c0,0.418 -0.15,0.776 -0.448,1.075c-0.298,0.298 -0.656,0.447 -1.074,0.447c-0.418,0 -0.776,-0.149 -1.074,-0.447m-3.562,0c-0.299,-0.299 -0.448,-0.657 -0.448,-1.075c0,-0.417 0.149,-0.775 0.448,-1.074c0.298,-0.298 0.656,-0.447 1.074,-0.447c0.417,0 0.775,0.149 1.074,0.447c0.298,0.299 0.447,0.657 0.447,1.074c0,0.418 -0.149,0.776 -0.447,1.075c-0.299,0.298 -0.657,0.447 -1.074,0.447c-0.418,0 -0.776,-0.149 -1.074,-0.447m6.963,8.002l0,2.649c-1.897,0 -3.18,-0.525 -3.848,-1.575c-0.43,0.501 -0.97,0.889 -1.621,1.164c-0.65,0.274 -1.393,0.411 -2.228,0.411c-0.406,0 -0.746,-0.131 -1.021,-0.394c-0.274,-0.262 -0.412,-0.584 -0.412,-0.966c0,-0.382 0.132,-0.692 0.394,-0.931c0.263,-0.239 0.609,-0.358 1.039,-0.358c0.656,0 1.193,-0.191 1.611,-0.573c0.417,-0.382 0.626,-0.955 0.626,-1.719l0,-3.652l2.704,0l0,3.652c0,0.681 0.19,1.224 0.572,1.629c0.442,0.442 1.17,0.663 2.184,0.663" style="fill:#fff;fill-rule:nonzero;"/><path d="M129.583,29.624l0,2.649l-5.549,0c-0.8,0 -1.462,-0.122 -1.987,-0.367c-0.526,-0.244 -0.937,-0.611 -1.235,-1.101c-0.359,0.466 -0.782,0.827 -1.272,1.083c-0.489,0.257 -1.02,0.385 -1.593,0.385l-6.982,0c-0.417,0 -0.761,-0.125 -1.029,-0.376c-0.269,-0.25 -0.403,-0.566 -0.403,-0.948c0,-0.382 0.134,-0.699 0.403,-0.949c0.268,-0.251 0.612,-0.376 1.029,-0.376l2.238,0l0,-6.588l2.703,0l0,6.588l1.683,0c1.014,0 1.522,-0.764 1.522,-2.292l0,-4.296l2.703,0l0,4.296c0,0.788 0.152,1.367 0.457,1.737c0.304,0.37 0.772,0.555 1.405,0.555l1.343,0l0,-7.179l2.703,0l0,7.179l1.861,0Z" style="fill:#fff;fill-rule:nonzero;"/><path d="M137.603,29.221c0.43,-0.388 0.645,-0.94 0.645,-1.656c0,-0.692 -0.197,-1.268 -0.591,-1.728c-0.394,-0.459 -0.913,-0.689 -1.557,-0.689c-0.49,0 -0.887,0.165 -1.191,0.493c-0.304,0.328 -0.576,0.85 -0.814,1.566c-0.12,0.346 -0.209,0.71 -0.269,1.092c-0.024,0.084 -0.045,0.182 -0.062,0.295c-0.019,0.114 -0.051,0.242 -0.099,0.385c0.346,0.275 0.722,0.481 1.128,0.618c0.405,0.137 0.799,0.206 1.181,0.206c0.656,0 1.2,-0.194 1.629,-0.582m0.976,-6.096c0.734,0.454 1.313,1.072 1.737,1.853c0.423,0.782 0.635,1.644 0.635,2.587c0,0.979 -0.209,1.823 -0.626,2.533c-0.418,0.71 -0.973,1.25 -1.665,1.62c-0.693,0.37 -1.45,0.555 -2.274,0.555c-0.644,0 -1.28,-0.113 -1.906,-0.34c-0.627,-0.226 -1.209,-0.567 -1.746,-1.02c-0.358,0.441 -0.809,0.778 -1.352,1.011c-0.543,0.233 -1.143,0.349 -1.799,0.349c-0.405,0 -0.745,-0.131 -1.02,-0.394c-0.274,-0.262 -0.412,-0.584 -0.412,-0.966c0,-0.382 0.132,-0.692 0.394,-0.931c0.263,-0.239 0.609,-0.358 1.038,-0.358c0.382,0 0.675,-0.069 0.878,-0.206c0.202,-0.137 0.349,-0.325 0.438,-0.564c0.09,-0.239 0.194,-0.609 0.313,-1.11c0.12,-0.513 0.203,-0.847 0.251,-1.002c0.37,-1.361 0.952,-2.417 1.745,-3.169c0.794,-0.752 1.758,-1.128 2.892,-1.128c0.919,0 1.745,0.227 2.479,0.68" style="fill:#fff;fill-rule:nonzero;"/></g></g></g></svg>