<?xml version="1.0" encoding="UTF-8" standalone="no"?><!DOCTYPE svg PUBLIC "-//W3C//DTD SVG 1.1//EN" "http://www.w3.org/Graphics/SVG/1.1/DTD/svg11.dtd"><svg width="100%" height="100%" viewBox="0 0 334 318" version="1.1" xmlns="http://www.w3.org/2000/svg" xmlns:xlink="http://www.w3.org/1999/xlink" xml:space="preserve" xmlns:serif="http://www.serif.com/" style="fill-rule:evenodd;clip-rule:evenodd;stroke-linejoin:round;stroke-miterlimit:1.41421;"><g><g><path d="M131.153,21.123c0,9.426 -7.641,17.068 -17.067,17.068c-9.425,0 -17.066,-7.642 -17.066,-17.068c0,-9.426 7.641,-17.066 17.066,-17.066c9.426,0 17.067,7.64 17.067,17.066" style="fill:#fff;fill-rule:nonzero;"/><path d="M237.453,21.123c0,9.426 -7.641,17.068 -17.067,17.068c-9.425,0 -17.066,-7.642 -17.066,-17.068c0,-9.426 7.641,-17.066 17.066,-17.066c9.426,0 17.067,7.64 17.067,17.066" style="fill:#fff;fill-rule:nonzero;"/><path d="M113.059,187.027c-9.094,0.086 -16.512,-7.264 -16.512,-16.358l0,-108.842c0,-9.034 7.323,-16.359 16.359,-16.359l1.422,0c5.011,0 9.491,2.251 12.49,5.793l0.222,0.115c2.37,20.256 19.593,33.373 40.486,33.373c13.732,0 25.879,-4.188 33.265,-14.593l0.004,-0.006l0.013,-0.018l0.103,-0.147l0.044,-0.062l0.015,-0.022l0.02,-0.029l0.062,-0.088l0.071,-0.104l0.021,-0.03l0.012,-0.017c0.11,-0.161 0.219,-0.322 0.327,-0.484l0.003,-0.004l0.009,-0.014l0.106,-0.16l0.039,-0.06l0.014,-0.021l0.019,-0.029l0.062,-0.096l0.066,-0.102l0.019,-0.029l0.012,-0.018l0.037,-0.057l0.114,-0.18l0.001,-0.002l0.001,0c0.105,-0.167 0.21,-0.334 0.313,-0.503l0.009,-0.015l0.015,-0.025l0.067,-0.109l0.063,-0.104l0.014,-0.023l0.01,-0.016c0.153,-0.254 0.303,-0.51 0.45,-0.767l0.005,-0.008l0.008,-0.015l0.073,-0.128l0.062,-0.11l0.008,-0.014l0.006,-0.01c2.678,-4.765 4.426,-10.123 4.997,-15.827c2.956,-2.924 7.02,-4.73 11.505,-4.73l1.423,0c9.119,0 16.478,7.457 16.358,16.575l-1.424,108.841c-0.115,8.891 -7.312,16.062 -16.203,16.144c-9.094,0.086 -16.513,-7.262 -16.513,-16.357l0,-78.918c-3.415,10.357 -13.17,17.833 -24.673,17.834l-22.591,0c-12.893,0 -23.591,-9.394 -25.626,-21.71l-1.078,82.502c-0.115,8.89 -7.313,16.06 -16.203,16.143l-0.001,0Z" style="fill:#fff;"/></g><g id="Layer-1" serif:id="Layer 1"><path d="M33.492,312.336c-1.072,-1.073 -1.607,-2.358 -1.607,-3.858c0,-1.501 0.535,-2.787 1.607,-3.858c1.071,-1.072 2.357,-1.608 3.857,-1.608c1.501,0 2.787,0.536 3.858,1.608c1.071,1.071 1.608,2.357 1.608,3.858c0,1.5 -0.537,2.785 -1.608,3.858c-1.071,1.071 -2.357,1.607 -3.858,1.607c-1.5,0 -2.786,-0.536 -3.857,-1.607m-12.795,0c-1.072,-1.073 -1.608,-2.358 -1.608,-3.858c0,-1.501 0.536,-2.787 1.608,-3.858c1.071,-1.072 2.357,-1.608 3.858,-1.608c1.499,0 2.785,0.536 3.857,1.608c1.071,1.071 1.608,2.357 1.608,3.858c0,1.5 -0.537,2.785 -1.608,3.858c-1.072,1.071 -2.358,1.607 -3.857,1.607c-1.501,0 -2.787,-0.536 -3.858,-1.607m36.97,-32.02l-0.965,0c0.171,0.857 0.258,1.842 0.258,2.958c0,5.486 -1.919,9.525 -5.755,12.12c-3.836,2.593 -9.784,3.889 -17.842,3.889l-3.793,0c-4.801,0 -9.109,-0.75 -12.924,-2.25c-3.815,-1.5 -6.837,-3.816 -9.065,-6.944c-2.23,-3.129 -3.344,-7.073 -3.344,-11.83c0,-3.473 0.621,-7.266 1.865,-11.381l9.065,0c-0.943,3.644 -1.414,6.773 -1.414,9.387c0,4.458 1.286,7.834 3.858,10.127c2.571,2.293 6.558,3.44 11.959,3.44l3.793,0c3.771,0 6.633,-0.193 8.584,-0.578c1.95,-0.386 3.321,-1.04 4.115,-1.962c0.792,-0.922 1.189,-2.261 1.189,-4.018c0,-1.158 -0.333,-2.122 -0.997,-2.894c-0.664,-0.771 -1.94,-1.414 -3.825,-1.928l-3.151,-0.708c-1.072,-0.299 -3.45,-0.857 -7.136,-1.671l1.864,-8.809c6.601,1.458 11.337,2.401 14.209,2.829c2.872,0.429 6.022,0.665 9.452,0.708l0,9.515Z" style="fill:#fff;fill-rule:nonzero;"/><path d="M72.969,242.06c-1.072,-1.071 -1.608,-2.356 -1.608,-3.857c0,-1.5 0.536,-2.787 1.608,-3.858c1.071,-1.071 2.357,-1.608 3.858,-1.608c1.499,0 2.785,0.537 3.857,1.608c1.071,1.071 1.608,2.358 1.608,3.858c0,1.501 -0.537,2.786 -1.608,3.857c-1.072,1.072 -2.358,1.608 -3.857,1.608c-1.501,0 -2.787,-0.536 -3.858,-1.608m-12.795,0c-1.072,-1.071 -1.607,-2.356 -1.607,-3.857c0,-1.5 0.535,-2.787 1.607,-3.858c1.071,-1.071 2.357,-1.608 3.858,-1.608c1.5,0 2.786,0.537 3.858,1.608c1.07,1.071 1.607,2.358 1.607,3.858c0,1.501 -0.537,2.786 -1.607,3.857c-1.072,1.072 -2.358,1.608 -3.858,1.608c-1.501,0 -2.787,-0.536 -3.858,-1.608m5.53,7.394l9.708,0l0,30.862l-17.745,0c-1.457,0 -2.679,-0.471 -3.666,-1.414c-0.985,-0.942 -1.478,-2.1 -1.478,-3.472c0,-1.372 0.472,-2.486 1.414,-3.344c0.944,-0.857 2.186,-1.285 3.73,-1.285l8.037,0l0,-21.347Z" style="fill:#fff;fill-rule:nonzero;"/><rect x="86.985" y="233.123" width="9.708" height="47.193" style="fill:#fff;"/><path d="M126.784,270.801l0,9.515l-6.687,0c0,4.586 -1.029,8.058 -3.086,10.416c-2.058,2.357 -4.994,3.537 -8.809,3.537c-2.529,0 -5.23,-0.473 -8.101,-1.416l1.865,-8.358c1.97,0.471 3.514,0.708 4.629,0.708c1.328,0 2.293,-0.365 2.893,-1.093c0.6,-0.73 0.9,-1.994 0.9,-3.794l0,-30.862l9.709,0l0,21.347l6.687,0Z" style="fill:#fff;fill-rule:nonzero;"/><path d="M143.05,295.426c-1.072,-1.072 -1.608,-2.358 -1.608,-3.858c0,-1.501 0.536,-2.787 1.608,-3.858c1.071,-1.072 2.357,-1.607 3.858,-1.607c1.499,0 2.786,0.535 3.857,1.607c1.071,1.071 1.608,2.357 1.608,3.858c0,1.5 -0.537,2.786 -1.608,3.858c-1.071,1.071 -2.358,1.607 -3.857,1.607c-1.501,0 -2.787,-0.536 -3.858,-1.607m22.375,-25.494c0.428,0.408 0.953,0.654 1.575,0.74c0.621,0.086 1.596,0.129 2.926,0.129l0,9.515l-43.078,0c-1.714,0 -3.043,-0.471 -3.987,-1.414c-0.942,-0.943 -1.414,-2.058 -1.414,-3.344c0,-1.285 0.472,-2.4 1.414,-3.343c0.944,-0.942 2.273,-1.414 3.987,-1.414l28.29,0c-0.043,-0.171 -0.087,-0.364 -0.129,-0.579c-0.043,-0.214 -0.086,-0.471 -0.129,-0.772c-0.557,-3.256 -1.296,-5.84 -2.218,-7.747c-0.922,-1.907 -2.112,-3.376 -3.568,-4.405c-2.958,-2.057 -6.645,-3.086 -11.059,-3.086c-2.401,0 -4.801,0.344 -7.201,1.029l-1.093,-8.937c3.215,-0.857 6.407,-1.286 9.58,-1.286c5.828,0 10.951,1.479 15.366,4.436c2.572,1.715 4.651,4.073 6.237,7.072c1.585,3.002 2.786,6.795 3.601,11.381c0.17,0.944 0.471,1.619 0.9,2.025" style="fill:#fff;fill-rule:nonzero;"/><path d="M194.422,270.801l0,9.515l-17.681,0l0,-43.335l9.709,0l0,33.82l7.972,0Zm-6.301,-38.964l-13.373,0l0,-4.051l1.479,0c-0.987,-0.899 -1.479,-2.163 -1.479,-3.793c0,-1.929 0.728,-3.504 2.186,-4.725c1.456,-1.222 3.236,-1.833 5.336,-1.833c1.629,0 3.236,0.386 4.823,1.158l-1.994,3.857c-0.9,-0.343 -1.715,-0.514 -2.443,-0.514c-0.943,0 -1.715,0.225 -2.314,0.675c-0.601,0.45 -0.9,1.125 -0.9,2.025c0,0.944 0.331,1.704 0.996,2.283c0.664,0.578 1.511,0.867 2.54,0.867l5.143,0l0,4.051Z" style="fill:#fff;fill-rule:nonzero;"/><path d="M209.852,242.06c-1.071,-1.071 -1.607,-2.356 -1.607,-3.857c0,-1.5 0.536,-2.787 1.607,-3.858c1.071,-1.071 2.357,-1.608 3.858,-1.608c1.5,0 2.786,0.537 3.858,1.608c1.071,1.071 1.607,2.358 1.607,3.858c0,1.501 -0.536,2.786 -1.607,3.857c-1.072,1.072 -2.358,1.608 -3.858,1.608c-1.501,0 -2.787,-0.536 -3.858,-1.608m-12.794,0c-1.072,-1.071 -1.608,-2.356 -1.608,-3.857c0,-1.5 0.536,-2.787 1.608,-3.858c1.071,-1.071 2.356,-1.608 3.857,-1.608c1.5,0 2.786,0.537 3.858,1.608c1.071,1.071 1.607,2.358 1.607,3.858c0,1.501 -0.536,2.786 -1.607,3.857c-1.072,1.072 -2.358,1.608 -3.858,1.608c-1.501,0 -2.786,-0.536 -3.857,-1.608m25.011,28.741l0,9.515c-6.816,0 -11.424,-1.886 -13.824,-5.658c-1.543,1.801 -3.483,3.194 -5.819,4.18c-2.336,0.986 -5.005,1.478 -8.005,1.478c-1.456,0 -2.678,-0.471 -3.664,-1.414c-0.986,-0.942 -1.479,-2.1 -1.479,-3.472c0,-1.372 0.472,-2.486 1.414,-3.344c0.944,-0.857 2.186,-1.285 3.729,-1.285c2.357,0 4.286,-0.686 5.787,-2.058c1.5,-1.371 2.251,-3.429 2.251,-6.172l0,-13.117l9.708,0l0,13.117c0,2.443 0.685,4.394 2.058,5.851c1.585,1.586 4.2,2.379 7.844,2.379" style="fill:#fff;fill-rule:nonzero;"/><path d="M288.936,270.801l0,9.515l-19.932,0c-2.872,0 -5.251,-0.439 -7.137,-1.318c-1.886,-0.878 -3.365,-2.196 -4.436,-3.954c-1.286,1.671 -2.808,2.968 -4.565,3.89c-1.758,0.922 -3.665,1.382 -5.722,1.382l-25.076,0c-1.499,0 -2.733,-0.45 -3.697,-1.35c-0.964,-0.9 -1.446,-2.035 -1.446,-3.408c0,-1.371 0.482,-2.507 1.446,-3.408c0.964,-0.9 2.198,-1.349 3.697,-1.349l8.037,0l0,-23.662l9.709,0l0,23.662l6.044,0c3.642,0 5.465,-2.743 5.465,-8.23l0,-15.432l9.708,0l0,15.432c0,2.829 0.547,4.908 1.64,6.236c1.093,1.329 2.775,1.994 5.047,1.994l4.823,0l0,-25.783l9.708,0l0,25.783l6.687,0Z" style="fill:#fff;fill-rule:nonzero;"/><path d="M317.74,269.354c1.543,-1.393 2.314,-3.376 2.314,-5.948c0,-2.485 -0.707,-4.554 -2.121,-6.204c-1.415,-1.65 -3.279,-2.476 -5.594,-2.476c-1.758,0 -3.183,0.59 -4.276,1.769c-1.093,1.179 -2.068,3.054 -2.926,5.625c-0.428,1.245 -0.75,2.551 -0.964,3.923c-0.086,0.3 -0.161,0.653 -0.225,1.061c-0.064,0.407 -0.183,0.868 -0.353,1.382c1.242,0.986 2.592,1.726 4.051,2.218c1.456,0.493 2.87,0.739 4.243,0.739c2.356,0 4.307,-0.695 5.851,-2.089m3.504,-21.893c2.636,1.629 4.714,3.848 6.236,6.655c1.521,2.808 2.283,5.905 2.283,9.29c0,3.516 -0.75,6.548 -2.25,9.098c-1.501,2.551 -3.494,4.491 -5.98,5.819c-2.486,1.329 -5.208,1.993 -8.166,1.993c-2.314,0 -4.596,-0.407 -6.847,-1.222c-2.25,-0.813 -4.34,-2.035 -6.269,-3.664c-1.286,1.586 -2.904,2.797 -4.854,3.632c-1.951,0.836 -4.105,1.254 -6.462,1.254c-1.456,0 -2.678,-0.471 -3.665,-1.414c-0.985,-0.943 -1.478,-2.1 -1.478,-3.472c0,-1.372 0.472,-2.486 1.414,-3.344c0.943,-0.857 2.186,-1.285 3.729,-1.285c1.372,0 2.422,-0.247 3.151,-0.74c0.728,-0.492 1.253,-1.167 1.575,-2.025c0.322,-0.857 0.696,-2.186 1.125,-3.987c0.428,-1.842 0.728,-3.043 0.9,-3.6c1.329,-4.887 3.418,-8.68 6.269,-11.381c2.85,-2.7 6.311,-4.05 10.384,-4.05c3.3,0 6.269,0.814 8.905,2.443" style="fill:#fff;fill-rule:nonzero;"/></g></g></svg>