<?xml version="1.0" encoding="UTF-8" standalone="no"?><!DOCTYPE svg PUBLIC "-//W3C//DTD SVG 1.1//EN" "http://www.w3.org/Graphics/SVG/1.1/DTD/svg11.dtd"><svg width="100%" height="100%" viewBox="0 0 188 61" version="1.1" xmlns="http://www.w3.org/2000/svg" xmlns:xlink="http://www.w3.org/1999/xlink" xml:space="preserve" xmlns:serif="http://www.serif.com/" style="fill-rule:evenodd;clip-rule:evenodd;stroke-linejoin:round;stroke-miterlimit:1.41421;"><path id="Rounded-Rectangle-1-copy" serif:id="Rounded Rectangle 1 copy" d="M187.772,6.199c0,-3.353 -2.722,-6.075 -6.075,-6.075l-175.394,0c-3.353,0 -6.075,2.722 -6.075,6.075l0,48.602c0,3.353 2.722,6.075 6.075,6.075l175.394,0c3.353,0 6.075,-2.722 6.075,-6.075l0,-48.602Z"/><g id="Download-on-the-app-store" serif:id="Download on the app store"><path d="M62.601,25.47l3.504,0c1.792,0 4.471,-1.197 4.471,-4.561c0,-3.364 -2.679,-4.561 -4.471,-4.561l-3.504,0l0,9.122Zm1.081,-8.118l2.062,0c2.089,0 3.674,1.056 3.674,3.557c0,2.501 -1.585,3.558 -3.674,3.558l-2.062,0l0,-7.115Z" style="fill:#fff;fill-rule:nonzero;"/><path d="M71.789,22.456c0,1.882 1.365,3.169 3.221,3.169c1.857,0 3.221,-1.287 3.221,-3.169c0,-1.883 -1.364,-3.17 -3.221,-3.17c-1.856,0 -3.221,1.287 -3.221,3.17Zm1.081,0c0,-1.264 0.838,-2.244 2.14,-2.244c1.302,0 2.14,0.98 2.14,2.244c0,1.263 -0.838,2.243 -2.14,2.243c-1.302,0 -2.14,-0.98 -2.14,-2.243Z" style="fill:#fff;fill-rule:nonzero;"/><path d="M88.206,19.441l-1.083,0l-1.365,4.639l-0.026,0l-1.585,-4.639l-1.057,0l-1.559,4.639l-0.025,0l-1.379,-4.639l-1.108,0l1.958,6.029l1.031,0l1.521,-4.639l0.025,0l1.714,4.639l0.992,0l1.946,-6.029Z" style="fill:#fff;fill-rule:nonzero;"/><path d="M89.341,25.47l1.004,0l0,-2.938c0,-1.379 0.567,-2.32 1.869,-2.32c0.942,0 1.38,0.632 1.38,1.637l0,3.621l1.003,0l0,-3.724c0,-1.456 -0.707,-2.46 -2.292,-2.46c-0.993,0 -1.741,0.553 -2.012,1.145l-0.025,0c0,-0.333 -0.026,-0.668 -0.026,-0.99l-0.952,0c0,0.399 0.051,0.876 0.051,1.43l0,4.599Z" style="fill:#fff;fill-rule:nonzero;"/><rect x="96.597" y="15.729" width="1.004" height="9.741" style="fill:#fff;fill-rule:nonzero;"/><path d="M99.251,22.456c0,1.882 1.365,3.169 3.221,3.169c1.857,0 3.221,-1.287 3.221,-3.169c0,-1.883 -1.364,-3.17 -3.221,-3.17c-1.856,0 -3.221,1.287 -3.221,3.17Zm1.081,0c0,-1.264 0.838,-2.244 2.14,-2.244c1.302,0 2.14,0.98 2.14,2.244c0,1.263 -0.838,2.243 -2.14,2.243c-1.302,0 -2.14,-0.98 -2.14,-2.243Z" style="fill:#fff;fill-rule:nonzero;"/><path d="M107.807,20.87c0.476,-0.438 1.147,-0.658 1.792,-0.658c0.941,0 1.495,0.452 1.495,1.329l0,0.181l-0.387,0c-1.482,0 -3.801,0.116 -3.801,2.113c0,1.172 1.017,1.79 2.241,1.79c0.916,0 1.586,-0.437 1.986,-1.055l0.026,0c0,0.256 0,0.63 0.064,0.9l0.965,0c-0.052,-0.309 -0.09,-0.696 -0.09,-1.044l0,-2.588c0,-1.703 -0.746,-2.552 -2.525,-2.552c-0.877,0 -1.779,0.296 -2.397,0.926l0.631,0.658Zm3.287,1.701l0,0.386c-0.026,0.981 -0.619,1.819 -1.779,1.819c-0.761,0 -1.328,-0.284 -1.328,-1.045c0,-0.812 0.825,-1.16 2.102,-1.16l1.005,0Z" style="fill:#fff;fill-rule:nonzero;"/><path d="M118.955,25.47l1.004,0l0,-9.741l-1.004,0l0,4.587l-0.026,0c-0.554,-0.644 -1.289,-1.03 -2.165,-1.03c-1.896,0 -3.17,1.339 -3.17,3.169c0,1.805 1.326,3.17 3.015,3.17c1.083,0 1.947,-0.54 2.32,-1.223l0.026,0l0,1.068Zm0,-3.014c0,1.263 -0.838,2.243 -2.14,2.243c-1.302,0 -2.14,-0.98 -2.14,-2.243c0,-1.264 0.838,-2.244 2.14,-2.244c1.302,0 2.14,0.98 2.14,2.244Z" style="fill:#fff;fill-rule:nonzero;"/><path d="M125.051,22.456c0,1.882 1.364,3.169 3.221,3.169c1.856,0 3.22,-1.287 3.22,-3.169c0,-1.883 -1.364,-3.17 -3.22,-3.17c-1.857,0 -3.221,1.287 -3.221,3.17Zm1.08,0c0,-1.264 0.838,-2.244 2.141,-2.244c1.302,0 2.14,0.98 2.14,2.244c0,1.263 -0.838,2.243 -2.14,2.243c-1.303,0 -2.141,-0.98 -2.141,-2.243Z" style="fill:#fff;fill-rule:nonzero;"/><path d="M133.053,25.47l1.004,0l0,-2.938c0,-1.379 0.567,-2.32 1.869,-2.32c0.942,0 1.38,0.632 1.38,1.637l0,3.621l1.004,0l0,-3.724c0,-1.456 -0.708,-2.46 -2.293,-2.46c-0.993,0 -1.741,0.553 -2.012,1.145l-0.025,0c0,-0.333 -0.026,-0.668 -0.026,-0.99l-0.952,0c0,0.399 0.051,0.876 0.051,1.43l0,4.599Z" style="fill:#fff;fill-rule:nonzero;"/><path d="M147.098,19.441l-1.778,0l0,-1.714l-1.004,0l0,1.714l-1.314,0l0,0.849l1.314,0l0,3.313c0,1.25 0.232,2.022 1.661,2.022c0.374,0 0.825,-0.064 1.173,-0.219l-0.039,-0.914c-0.27,0.142 -0.593,0.207 -0.889,0.207c-0.889,0 -0.902,-0.619 -0.902,-1.393l0,-3.016l1.778,0l0,-0.849Z" style="fill:#fff;fill-rule:nonzero;"/><path d="M148.337,25.47l1.004,0l0,-2.938c0,-1.379 0.567,-2.32 1.869,-2.32c0.941,0 1.38,0.632 1.38,1.637l0,3.621l1.003,0l0,-3.724c0,-1.456 -0.707,-2.46 -2.293,-2.46c-0.941,0 -1.663,0.515 -1.934,0.991l-0.025,0l0,-4.548l-1.004,0l0,9.741Z" style="fill:#fff;fill-rule:nonzero;"/><path d="M160.128,23.783c-0.476,0.606 -1.057,0.916 -1.92,0.916c-1.096,0 -1.896,-0.89 -1.973,-1.935l4.871,0l0,-0.322c0,-1.997 -1.158,-3.156 -2.86,-3.156c-1.779,0 -3.092,1.3 -3.092,3.169c0,1.754 1.158,3.17 3.054,3.17c1.121,0 1.972,-0.335 2.68,-1.249l-0.76,-0.593Zm-3.893,-1.868c0.129,-1.019 0.864,-1.703 1.973,-1.703c1.108,0 1.779,0.684 1.817,1.703l-3.79,0Z" style="fill:#fff;fill-rule:nonzero;"/><path d="M61.653,43.88l2.062,0l1.288,-3.222l6.203,0l1.307,3.222l2.062,0l-5.578,-13.032l-1.601,0l-5.743,13.032Zm3.976,-4.766l2.467,-5.983l0.036,0l2.43,5.983l-4.933,0Z" style="fill:#fff;fill-rule:nonzero;"/><path d="M75.847,49.071l1.655,0l0,-6.441l0.037,0c0.589,0.901 1.786,1.471 3.038,1.471c2.689,0 4.436,-1.968 4.436,-4.583c0,-2.579 -1.728,-4.583 -4.436,-4.583c-1.178,0 -2.394,0.533 -3.038,1.47l-0.037,0l0,-1.249l-1.655,0l0,13.915Zm4.528,-12.592c1.768,0 2.873,1.271 2.873,3.039c0,1.768 -1.105,3.038 -2.873,3.038c-1.768,0 -2.873,-1.27 -2.873,-3.038c0,-1.768 1.105,-3.039 2.873,-3.039Z" style="fill:#fff;fill-rule:nonzero;"/><path d="M87.096,49.071l1.654,0l0,-6.441l0.037,0c0.589,0.901 1.786,1.471 3.039,1.471c2.689,0 4.435,-1.968 4.435,-4.583c0,-2.579 -1.728,-4.583 -4.435,-4.583c-1.179,0 -2.394,0.533 -3.039,1.47l-0.037,0l0,-1.249l-1.654,0l0,13.915Zm4.527,-12.592c1.768,0 2.873,1.271 2.873,3.039c0,1.768 -1.105,3.038 -2.873,3.038c-1.768,0 -2.873,-1.27 -2.873,-3.038c0,-1.768 1.105,-3.039 2.873,-3.039Z" style="fill:#fff;fill-rule:nonzero;"/><path d="M102.818,42.409c0.883,1.232 2.483,1.802 4.159,1.802c2.505,0 4.528,-1.508 4.528,-4.03c0,-4.696 -6.425,-2.725 -6.425,-6.021c0,-0.811 0.589,-1.989 2.541,-1.989c1.013,0 1.879,0.46 2.321,1.142l1.434,-1.307c-0.975,-1.195 -2.336,-1.49 -3.755,-1.49c-3.13,0 -4.417,2.115 -4.417,3.644c0,5.082 6.425,3.222 6.425,6.224c0,1.436 -1.437,2.172 -2.597,2.172c-1.05,0 -2.136,-0.442 -2.761,-1.399l-1.453,1.252Z" style="fill:#fff;fill-rule:nonzero;"/><path d="M118.371,35.156l-2.374,0l0,-2.449l-1.655,0l0,2.449l-1.915,0l0,1.433l1.915,0l0,4.549c0,1.4 0.037,2.963 2.593,2.963c0.332,0 1.105,-0.074 1.492,-0.295l0,-1.507c-0.332,0.202 -0.792,0.257 -1.179,0.257c-1.251,0 -1.251,-1.031 -1.251,-2.007l0,-3.96l2.374,0l0,-1.433Z" style="fill:#fff;fill-rule:nonzero;"/><path d="M121.851,39.518c0,-1.768 1.105,-3.039 2.873,-3.039c1.768,0 2.873,1.271 2.873,3.039c0,1.768 -1.105,3.038 -2.873,3.038c-1.768,0 -2.873,-1.27 -2.873,-3.038Zm-1.765,0c0,2.541 2.041,4.583 4.638,4.583c2.597,0 4.638,-2.042 4.638,-4.583c0,-2.542 -2.041,-4.583 -4.638,-4.583c-2.597,0 -4.638,2.041 -4.638,4.583Z" style="fill:#fff;fill-rule:nonzero;"/><path d="M131.445,43.88l1.654,0l0,-4.381c0,-1.916 0.884,-2.799 2.504,-2.799c0.258,0 0.534,0.055 0.81,0.129l0.074,-1.784c-0.221,-0.073 -0.479,-0.11 -0.737,-0.11c-1.086,0 -2.191,0.643 -2.614,1.563l-0.037,0l0,-1.342l-1.654,0l0,8.724Z" style="fill:#fff;fill-rule:nonzero;"/><path d="M146.17,40.124l0,-0.588c0,-2.246 -1.177,-4.601 -4.251,-4.601c-2.616,0 -4.51,1.968 -4.51,4.583c0,2.596 1.729,4.583 4.491,4.583c1.676,0 2.946,-0.589 3.866,-1.784l-1.251,-0.958c-0.644,0.792 -1.381,1.308 -2.394,1.308c-1.528,0 -2.947,-1.014 -2.947,-2.543l6.996,0Zm-6.996,-1.323c0,-1.161 1.069,-2.543 2.708,-2.543c1.676,0 2.486,1.087 2.523,2.543l-5.231,0Z" style="fill:#fff;fill-rule:nonzero;"/></g><path id="Forma-1" serif:id="Forma 1" d="M41.896,31.389c-0.036,-3.593 2.93,-5.316 3.063,-5.402c-1.667,-2.438 -4.263,-2.773 -5.188,-2.811c-2.209,-0.224 -4.311,1.301 -5.432,1.301c-1.119,0 -2.849,-1.268 -4.681,-1.235c-2.409,0.036 -4.629,1.401 -5.869,3.557c-2.502,4.342 -0.641,10.774 1.798,14.295c1.192,1.723 2.612,3.659 4.478,3.59c1.797,-0.072 2.476,-1.162 4.648,-1.162c2.172,0 2.783,1.162 4.684,1.126c1.933,-0.035 3.158,-1.756 4.341,-3.485c1.369,-2 1.932,-3.935 1.965,-4.035c-0.043,-0.019 -3.77,-1.447 -3.807,-5.739Zm-3.572,-10.544c0.99,-1.202 1.658,-2.868 1.476,-4.531c-1.426,0.058 -3.155,0.95 -4.179,2.149c-0.918,1.063 -1.721,2.76 -1.506,4.39c1.592,0.124 3.217,-0.81 4.209,-2.008Z" style="fill:#fff;fill-rule:nonzero;"/></svg>